<?xml version="1.0" encoding="utf-8"?>
<!-- Generator: Adobe Illustrator 18.1.0, SVG Export Plug-In . SVG Version: 6.00 Build 0)  -->
<svg version="1.1" xmlns="http://www.w3.org/2000/svg" xmlns:xlink="http://www.w3.org/1999/xlink" x="0px" y="0px"
	 viewBox="0 0 69.3 234.7" enable-background="new 0 0 69.3 234.7" xml:space="preserve">
<g id="OBJECTS">
</g>
<g id="Calque_1">
</g>
<g id="Layer_2">
</g>
<g id="Objects">
	<path fill="#575756" d="M44.3,17.2"/>
	<g>
		<g>
			<g>
				<path fill="#39B588" d="M68.6,128.3c0.3-11.2-2.8-15.8-4.2-20.8c-1.4-5,0-11.7,0-11.7c5.7-13,3.9-24.7,3.9-24.7
					c1.1-16.9-16.2-36.1-19.2-40.5c-3-4.3-1.8-13.4-1.8-13.4H35.2h-0.1H23c0,0,1.3,9-1.7,13.4C18.3,34.9,0.9,54.2,2,71.1
					c0,0-1.8,11.7,3.9,24.7c0,0,1.4,6.6,0,11.7c-1.4,5-4.4,9.6-4.2,20.8c0.3,11.2-0.5,69.3,0,73.6c0.5,4.3,1.5,30,19.3,31.8
					c10.5,1.1,13.8-5.1,14.1-5.9c0.4,0.7,3.6,6.9,14.1,5.9c17.8-1.8,18.8-27.4,19.3-31.8C69.1,197.6,68.3,139.5,68.6,128.3z"/>
			</g>
			<path opacity="0.4" fill="#39B588" d="M2,70.8c0,0-1.8,11.7,3.9,24.7c0,0,1.4,6.6,0,11.7c-1.4,5-4.4,9.6-4.2,20.8
				c0.3,11.2-0.5,69.3,0,73.6c0.5,4.3,1.5,30,19.3,31.8c10.5,1.1,13.8-5.1,14.1-5.9c0.4,0.7,3.6,6.9,14.1,5.9
				c17.8-1.8,18.8-27.4,19.3-31.8c0.5-4.3-0.3-62.4,0-73.6c0.3-11.2-2.8-15.8-4.2-20.8c-1.4-5,0-11.7,0-11.7
				c5.7-13,3.9-24.7,3.9-24.7"/>
		</g>
		<g>
			<g>
				<g>
					<path fill="#4F5159" d="M20.6,18.4V6.3c0-2.7,2.1-4.8,4.6-4.8h19.8c2.6,0,4.6,2.2,4.6,4.8v12.1"/>
				</g>
			</g>
		</g>
	</g>
	<g>
		<ellipse fill="#363B44" cx="16.3" cy="78.2" rx="2.9" ry="4.4"/>
	</g>
	<ellipse fill="#363B44" cx="58.8" cy="78.2" rx="2.9" ry="4.4"/>
	<path fill="none" stroke="#F28775" stroke-width="2" stroke-linecap="round" stroke-miterlimit="10" d="M31.9,76.8
		c0,0,1.6,4.7,5.7,4.7s5.3-4.7,5.3-4.7"/>
</g>
</svg>
