<svg width="113" height="148" viewBox="0 0 113 148" fill="none" xmlns="http://www.w3.org/2000/svg">
<path d="M50.6935 145.014C7.93648 84.1261 0 77.8772 0 55.5C0 24.8481 25.2958 0 56.5 0C87.7042 0 113 24.8481 113 55.5C113 77.8772 105.064 84.1261 62.3066 145.014C59.5007 148.995 53.499 148.995 50.6935 145.014ZM56.5 78.625C69.5018 78.625 80.0417 68.2716 80.0417 55.5C80.0417 42.7283 69.5018 32.375 56.5 32.375C43.4982 32.375 32.9583 42.7283 32.9583 55.5C32.9583 68.2716 43.4982 78.625 56.5 78.625Z" fill="#79E9D0" fill-opacity="0.6"/>
</svg>
