<svg width="256" height="77" viewBox="0 0 256 77" fill="none" xmlns="http://www.w3.org/2000/svg">
<rect x="46.3896" y="50.4055" width="157.915" height="26.5962" transform="rotate(-5.03056 46.3896 50.4055)" fill="#FBFF4B"/>
<rect x="107.271" y="17.3116" width="136.699" height="23.023" transform="rotate(-7.07286 107.271 17.3116)" fill="#FBFF4B"/>
<rect y="15.0065" width="126.423" height="23.023" transform="rotate(-3.25365 0 15.0065)" fill="#FBFF4B"/>
<path d="M82.3949 35.4241C83.2318 35.3995 83.9031 35.6395 84.409 36.144C84.914 36.6198 85.1788 37.2757 85.2035 38.1119L85.9511 63.4991C85.9757 64.3353 85.736 65.0205 85.2318 65.5547C84.7565 66.0881 84.1149 66.3667 83.3069 66.3905C82.47 66.4151 81.7986 66.1751 81.2928 65.6705C80.7869 65.166 80.5217 64.4956 80.497 63.6595L80.1824 52.9769L64.556 53.4363L64.8706 64.1189C64.8953 64.955 64.6555 65.6402 64.1513 66.1745C63.676 66.7079 63.02 66.9869 62.1831 67.0115C61.3751 67.0353 60.7037 66.7953 60.169 66.2916C59.6631 65.787 59.3979 65.1166 59.3733 64.2805L58.6256 38.8933C58.601 38.0571 58.8267 37.3867 59.3029 36.8822C59.7782 36.3487 60.4343 36.0697 61.2711 36.0451C62.108 36.0205 62.7794 36.2605 63.2852 36.7651C63.8191 37.24 64.0983 37.8955 64.123 38.7316L64.4236 48.9384L80.05 48.479L79.7494 38.2722C79.7247 37.4361 79.9505 36.7657 80.4266 36.2611C80.9019 35.7277 81.558 35.4487 82.3949 35.4241Z" fill="#1EDEC7"/>
<path d="M100.652 43.9342C103.595 43.8477 105.796 44.5189 107.253 45.9478C108.739 47.347 109.525 49.5315 109.612 52.5013L109.923 63.0541C109.946 63.8326 109.734 64.4592 109.285 64.9341C108.836 65.3802 108.208 65.6151 107.4 65.6389C106.65 65.6609 106.022 65.4485 105.518 65.0016C105.043 64.5539 104.794 63.9552 104.772 63.2055L104.744 62.254C104.287 63.3929 103.533 64.2952 102.484 64.9609C101.464 65.6258 100.261 65.9786 98.8763 66.0193C97.4623 66.0609 96.1696 65.8103 94.9983 65.2676C93.827 64.7249 92.8947 63.9587 92.2012 62.9691C91.5078 61.9794 91.1428 60.8647 91.1063 59.6249C91.0604 58.0679 91.4139 56.8311 92.1668 55.9144C92.9484 54.9968 94.2279 54.3099 96.0052 53.8536C97.7825 53.3974 100.244 53.123 103.389 53.0305L104.472 52.9987L104.442 52.004C104.401 50.5912 104.067 49.5765 103.443 48.96C102.817 48.3147 101.826 48.0119 100.47 48.0518C99.6331 48.0764 98.7857 48.2312 97.9276 48.5161C97.0686 48.7723 96.0544 49.1484 94.8848 49.6445C94.1455 50.0414 93.6028 50.2449 93.2565 50.2551C92.737 50.2704 92.2987 50.0957 91.9413 49.731C91.6129 49.3655 91.4397 48.88 91.4219 48.2745C91.4074 47.7844 91.5106 47.3629 91.7312 47.0101C91.9799 46.6277 92.3882 46.2694 92.956 45.9353C93.9498 45.3577 95.1347 44.89 96.5105 44.5322C97.9152 44.1734 99.2957 43.9741 100.652 43.9342ZM99.8438 62.0951C101.287 62.0527 102.441 61.5426 103.308 60.5648C104.203 59.5573 104.627 58.2895 104.582 56.7614L104.556 55.8532L103.776 55.8761C101.843 55.9329 100.345 56.0635 99.2823 56.2679C98.2196 56.4723 97.4638 56.7975 97.0149 57.2436C96.5659 57.6896 96.3524 58.2875 96.3745 59.0372C96.4017 59.9598 96.7416 60.7145 97.3943 61.3014C98.075 61.8585 98.8915 62.1231 99.8438 62.0951Z" fill="#1EDEC7"/>
<path d="M123.162 65.3053C120.016 65.3978 117.458 64.8526 115.488 63.6696C114.549 63.1489 114.064 62.384 114.035 61.3749C114.018 60.7982 114.163 60.3322 114.47 59.9769C114.776 59.5927 115.16 59.3939 115.622 59.3803C116.113 59.3659 116.798 59.5766 117.677 60.0125C118.613 60.4178 119.46 60.7248 120.217 60.9334C121.003 61.1412 121.987 61.2276 123.171 61.1929C124.383 61.1572 125.314 60.9278 125.966 60.5046C126.647 60.0806 126.977 59.5082 126.955 58.7874C126.941 58.2972 126.785 57.9122 126.488 57.6324C126.22 57.3517 125.722 57.1066 124.994 56.8972C124.293 56.658 123.217 56.4011 121.765 56.1264C119.181 55.6829 117.313 55.0019 116.159 54.0836C115.035 53.1643 114.448 51.8685 114.398 50.1962C114.361 48.9276 114.703 47.7777 115.423 46.7465C116.143 45.6864 117.144 44.8634 118.427 44.2774C119.737 43.6617 121.229 43.3293 122.903 43.2801C124.115 43.2444 125.288 43.3687 126.423 43.6527C127.557 43.908 128.58 44.3108 129.491 44.8611C130.432 45.4106 130.916 46.1611 130.944 47.1126C130.961 47.6893 130.817 48.1841 130.511 48.5971C130.205 48.9812 129.821 49.1801 129.359 49.1937C129.042 49.203 128.722 49.1547 128.402 49.0487C128.109 48.913 127.728 48.7222 127.258 48.4763C126.409 48.0684 125.678 47.7724 125.066 47.5884C124.453 47.3756 123.7 47.2823 122.805 47.3086C121.737 47.34 120.892 47.5813 120.27 48.0324C119.677 48.4827 119.391 49.0827 119.413 49.8324C119.435 50.5532 119.768 51.0917 120.414 51.4478C121.06 51.804 122.297 52.1428 124.127 52.4641C126.072 52.811 127.6 53.2277 128.712 53.7145C129.824 54.2012 130.622 54.8271 131.107 55.592C131.621 56.356 131.895 57.3436 131.931 58.5545C131.989 60.5152 131.212 62.1107 129.602 63.3412C128.021 64.5709 125.874 65.2256 123.162 65.3053Z" fill="#1EDEC7"/>
<path d="M138.342 55.0763C137.505 55.1009 136.865 54.9321 136.421 54.57C136.006 54.2071 135.789 53.694 135.769 53.0309C135.75 52.3677 135.936 51.8428 136.329 51.4561C136.75 51.0397 137.379 50.8192 138.216 50.7946L147.133 50.5324C147.97 50.5078 148.596 50.6914 149.012 51.0832C149.456 51.4453 149.688 51.9579 149.707 52.6211C149.727 53.2842 149.526 53.8096 149.104 54.1972C148.711 54.5839 148.096 54.7895 147.259 54.8141L138.342 55.0763Z" fill="#1EDEC7"/>
<path d="M166.793 41.9897C168.64 41.9354 170.283 42.3344 171.724 43.1866C173.164 44.0389 174.298 45.2753 175.126 46.8959C175.982 48.5156 176.443 50.4211 176.507 52.6124C176.572 54.8036 176.225 56.7617 175.467 58.4866C174.737 60.1818 173.664 61.512 172.249 62.477C170.862 63.4413 169.259 63.9501 167.441 64.0035C165.912 64.0485 164.531 63.7572 163.3 63.1297C162.097 62.5013 161.161 61.6054 160.491 60.4419L160.523 61.5232C160.546 62.3016 160.319 62.9288 159.842 63.4045C159.365 63.8803 158.722 64.13 157.914 64.1538C157.106 64.1775 156.45 63.9659 155.946 63.519C155.471 63.0713 155.222 62.4582 155.199 61.6797L154.437 35.8167C154.415 35.0671 154.643 34.4544 155.12 33.9786C155.625 33.502 156.282 33.2518 157.09 33.2281C157.898 33.2043 158.554 33.4015 159.057 33.8196C159.561 34.2376 159.823 34.8215 159.845 35.5711L160.146 45.7779C160.747 44.606 161.63 43.6998 162.795 43.0596C163.96 42.3905 165.292 42.0338 166.793 41.9897ZM165.889 59.8504C167.592 59.8003 168.902 59.1558 169.818 57.9168C170.735 56.6779 171.161 54.9627 171.096 52.7714C171.033 50.609 170.508 48.9651 169.521 47.8398C168.564 46.7136 167.22 46.176 165.488 46.2269C163.757 46.2778 162.432 46.9083 161.515 48.1185C160.625 49.2989 160.213 50.9848 160.277 53.1761C160.342 55.3674 160.853 57.0405 161.811 58.1955C162.799 59.3496 164.158 59.9013 165.889 59.8504Z" fill="#1EDEC7"/>
<path d="M183.956 63.4314C183.177 63.4543 182.521 63.2572 181.989 62.84C181.485 62.3931 181.221 61.7515 181.196 60.9154L180.704 44.2212C180.68 43.3851 180.906 42.7435 181.384 42.2966C181.891 41.8489 182.534 41.6135 183.313 41.5906C184.092 41.5677 184.748 41.7649 185.28 42.1821C185.812 42.5993 186.091 43.226 186.115 44.0621L186.607 60.7563C186.631 61.5925 186.391 62.2488 185.885 62.7254C185.378 63.1732 184.735 63.4085 183.956 63.4314ZM183.2 37.7414C182.218 37.7703 181.432 37.5337 180.839 37.0317C180.246 36.5008 179.937 35.8029 179.911 34.9379C179.886 34.0729 180.154 33.3725 180.716 32.8365C181.278 32.3006 182.049 32.0182 183.03 31.9893C183.983 31.9613 184.755 32.1983 185.347 32.7003C185.969 33.2015 186.292 33.8846 186.318 34.7496C186.343 35.6146 186.075 36.3294 185.514 36.8942C184.952 37.4302 184.181 37.7126 183.2 37.7414Z" fill="#1EDEC7"/>
<path d="M203.911 40.8985C206.45 40.8238 208.362 41.4891 209.645 42.8942C210.928 44.2994 211.613 46.458 211.699 49.3701L212.012 60.0094C212.036 60.8167 211.809 61.4583 211.332 61.934C210.884 62.4089 210.241 62.6587 209.405 62.6833C208.568 62.7079 207.897 62.4967 207.393 62.0498C206.889 61.6029 206.625 60.9758 206.601 60.1685L206.297 49.8319C206.248 48.1885 205.896 47.0012 205.239 46.2703C204.611 45.5384 203.633 45.192 202.305 45.231C200.747 45.2769 199.506 45.8039 198.583 46.8122C197.688 47.8197 197.265 49.1452 197.314 50.7886L197.598 60.4332C197.621 61.2405 197.395 61.882 196.918 62.3578C196.441 62.8335 195.784 63.0837 194.947 63.1083C194.11 63.1329 193.44 62.9218 192.935 62.4749C192.46 62.0271 192.211 61.3996 192.187 60.5923L191.694 43.8548C191.672 43.1052 191.899 42.4925 192.376 42.0167C192.853 41.541 193.51 41.2908 194.347 41.2662C195.097 41.2442 195.71 41.457 196.185 41.9048C196.689 42.3228 196.951 42.8923 196.972 43.6131L197.007 44.7808C197.693 43.5775 198.633 42.6408 199.827 41.9709C201.02 41.3009 202.381 40.9434 203.911 40.8985Z" fill="#1EDEC7"/>
<path d="M125.744 30.2928C125.322 30.3132 124.962 30.2154 124.664 29.9994C124.384 29.7825 124.233 29.444 124.211 28.9841L123.645 17.3136C123.623 16.8537 123.74 16.5023 123.997 16.2593C124.273 15.9962 124.621 15.8545 125.043 15.8341C125.465 15.8136 125.815 15.9215 126.096 16.1576C126.375 16.3745 126.526 16.713 126.548 17.1729L127.114 28.8433C127.137 29.3033 127.019 29.6547 126.762 29.8977C126.505 30.1406 126.165 30.2723 125.744 30.2928ZM124.906 13.017C124.351 13.044 123.902 12.912 123.562 12.6212C123.221 12.3304 123.039 11.9359 123.015 11.4376C122.99 10.9394 123.134 10.5386 123.446 10.2354C123.757 9.91299 124.19 9.73831 124.746 9.71137C125.283 9.68536 125.721 9.81776 126.062 10.1086C126.421 10.3793 126.612 10.7638 126.636 11.262C126.661 11.7603 126.517 12.1706 126.206 12.493C125.895 12.8154 125.462 12.9901 124.906 13.017Z" fill="#1EDEC7"/>
<path d="M136.129 29.8469C134.174 29.9417 132.555 29.6168 131.27 28.8724C130.915 28.6783 130.655 28.47 130.491 28.2475C130.345 28.024 130.266 27.7686 130.252 27.4811C130.237 27.1745 130.311 26.9116 130.473 26.6924C130.635 26.4733 130.85 26.3572 131.119 26.3442C131.368 26.3321 131.768 26.4664 132.32 26.747C132.909 27.0257 133.477 27.2479 134.023 27.4135C134.588 27.5782 135.283 27.6406 136.107 27.6006C137.026 27.556 137.737 27.3583 138.239 27.0074C138.74 26.6566 138.977 26.1841 138.948 25.5901C138.929 25.2068 138.809 24.9053 138.587 24.6855C138.384 24.4649 138.03 24.2804 137.523 24.1321C137.016 23.9646 136.268 23.7991 135.28 23.6357C133.576 23.3534 132.336 22.9237 131.559 22.3467C130.8 21.7496 130.394 20.9145 130.342 19.8414C130.302 19.0174 130.506 18.268 130.954 17.5932C131.4 16.8992 132.036 16.3498 132.862 15.9448C133.687 15.5398 134.637 15.3113 135.71 15.2593C136.476 15.2221 137.229 15.2913 137.967 15.4668C138.705 15.6231 139.361 15.8794 139.935 16.2357C140.588 16.6267 140.928 17.1 140.955 17.6557C140.97 17.9624 140.886 18.2257 140.705 18.4458C140.543 18.665 140.337 18.7806 140.088 18.7926C139.915 18.801 139.741 18.771 139.565 18.7028C139.389 18.6345 139.153 18.521 138.857 18.3625C138.325 18.081 137.824 17.8651 137.356 17.715C136.907 17.5639 136.347 17.5046 135.676 17.5371C134.871 17.5761 134.228 17.7802 133.747 18.1493C133.284 18.5174 133.068 18.9985 133.096 19.5926C133.122 20.1292 133.363 20.5401 133.819 20.8253C134.293 21.0905 135.159 21.327 136.418 21.5349C137.714 21.7409 138.735 21.9988 139.48 22.3084C140.225 22.6181 140.764 23.0241 141.095 23.5267C141.445 24.0091 141.639 24.6432 141.677 25.4289C141.738 26.6745 141.26 27.7062 140.243 28.5238C139.244 29.3213 137.873 29.7624 136.129 29.8469Z" fill="#1EDEC7"/>
<path d="M159.449 26.4401C159.872 26.458 160.175 26.5586 160.357 26.7419C160.557 26.905 160.665 27.1495 160.68 27.4753C160.699 27.8586 160.56 28.163 160.264 28.3887C159.985 28.5943 159.558 28.6918 158.981 28.6814L158.202 28.6615C156.644 28.6218 155.462 28.2085 154.656 27.4216C153.848 26.6156 153.405 25.3981 153.326 23.7693L152.999 17.0142L151.274 17.0978C150.431 17.1387 149.991 16.7854 149.955 16.0381C149.938 15.6931 150.031 15.4197 150.232 15.2179C150.452 14.9959 150.763 14.8752 151.165 14.8557L152.89 14.7721L152.747 11.8113C152.725 11.3706 152.833 11.0196 153.07 10.7584C153.326 10.4963 153.675 10.3545 154.116 10.3332C154.556 10.3118 154.917 10.4192 155.197 10.6553C155.478 10.8914 155.628 11.2298 155.65 11.6706L155.793 14.6313L158.639 14.4934C159.042 14.4738 159.353 14.5644 159.574 14.765C159.814 14.9454 159.941 15.2082 159.958 15.5531C159.976 15.9172 159.874 16.2006 159.654 16.4034C159.452 16.6053 159.15 16.716 158.748 16.7355L155.902 16.8734L156.239 23.8297C156.283 24.7304 156.497 25.3827 156.882 25.7867C157.285 26.1897 157.872 26.4013 158.641 26.4217L159.449 26.4401Z" fill="#1EDEC7"/>
<path d="M169.705 13.6111C173.039 13.4495 174.798 15.2562 174.981 19.0314L175.343 26.5051C175.364 26.9267 175.246 27.2685 174.99 27.5307C174.733 27.7928 174.385 27.9346 173.944 27.9559C173.503 27.9773 173.143 27.8699 172.862 27.6338C172.601 27.3968 172.46 27.0674 172.44 26.6459L172.079 19.2009C172.023 18.0511 171.743 17.2195 171.238 16.7062C170.752 16.1919 170.011 15.9589 169.014 16.0072C167.845 16.0639 166.924 16.4735 166.25 17.2361C165.576 17.9987 165.269 18.9932 165.329 20.2197L165.656 26.9747C165.677 27.3963 165.559 27.7382 165.302 28.0003C165.065 28.2615 164.727 28.4028 164.286 28.4242C163.845 28.4456 163.484 28.3382 163.204 28.1021C162.924 27.866 162.773 27.5371 162.753 27.1155L161.89 9.32235C161.87 8.90076 161.988 8.55889 162.244 8.29676C162.519 8.0337 162.877 7.89149 163.318 7.87012C163.74 7.84968 164.081 7.95798 164.342 8.19503C164.622 8.41198 164.771 8.72167 164.791 9.1241L165.139 16.3104C165.579 15.4823 166.191 14.8379 166.976 14.3773C167.76 13.9167 168.67 13.6613 169.705 13.6111Z" fill="#1EDEC7"/>
<path d="M190.184 23.4806C190.452 23.4676 190.678 23.5623 190.861 23.7647C191.043 23.9671 191.142 24.2313 191.158 24.557C191.185 25.1128 190.863 25.599 190.192 26.0157C189.54 26.4315 188.816 26.7643 188.022 27.0141C187.246 27.263 186.494 27.4051 185.766 27.4404C183.543 27.5482 181.758 26.9912 180.412 25.7695C179.065 24.5287 178.337 22.7872 178.229 20.5451C178.159 19.1078 178.375 17.82 178.877 16.6816C179.398 15.5422 180.151 14.6413 181.137 13.9788C182.142 13.3155 183.296 12.9522 184.6 12.889C186.478 12.7979 187.992 13.3296 189.143 14.4839C190.294 15.6382 190.919 17.2406 191.018 19.2911C191.055 20.0577 190.729 20.4576 190.039 20.4911L181.157 20.9217C181.493 23.8827 182.992 25.2987 185.656 25.1695C186.365 25.1352 186.974 25.0096 187.482 24.7929C187.99 24.5762 188.524 24.3006 189.084 23.9661C189.14 23.925 189.289 23.8409 189.533 23.7138C189.794 23.5667 190.012 23.4889 190.184 23.4806ZM184.76 15.0133C183.649 15.0672 182.775 15.4649 182.138 16.2065C181.502 16.9481 181.148 17.9641 181.076 19.2545L188.492 18.895C188.372 17.5946 187.988 16.6144 187.341 15.9543C186.713 15.274 185.852 14.9604 184.76 15.0133Z" fill="#1EDEC7"/>
<path d="M209.032 11.7044C212.385 11.5419 214.154 13.3482 214.337 17.1233L214.699 24.597C214.721 25.0378 214.603 25.3892 214.347 25.6514C214.109 25.8934 213.76 26.0256 213.3 26.0479C212.859 26.0692 212.499 25.9619 212.218 25.7257C211.957 25.4887 211.816 25.1594 211.796 24.7378L211.441 17.4078C211.383 16.2197 211.101 15.3594 210.595 14.8269C210.108 14.2934 209.367 14.0509 208.37 14.0992C207.201 14.1558 206.28 14.5655 205.606 15.3281C204.932 16.0906 204.625 17.0852 204.685 18.3116L205.012 25.0667C205.033 25.4883 204.915 25.8301 204.658 26.0923C204.421 26.3535 204.082 26.4948 203.642 26.5161C203.201 26.5375 202.84 26.4301 202.56 26.194C202.28 25.9579 202.129 25.629 202.109 25.2074L201.542 13.5082C201.522 13.1058 201.64 12.7735 201.897 12.5114C202.171 12.2292 202.519 12.0778 202.941 12.0574C203.362 12.0369 203.704 12.1452 203.965 12.3823C204.226 12.6193 204.366 12.9391 204.386 13.3415L204.443 14.5201C204.862 13.6546 205.473 12.9815 206.276 12.5008C207.078 12.0201 207.997 11.7546 209.032 11.7044Z" fill="#1EDEC7"/>
<path d="M229.54 21.5725C229.808 21.5595 230.034 21.6542 230.216 21.8566C230.399 22.0591 230.498 22.3232 230.514 22.649C230.541 23.2047 230.219 23.6909 229.548 24.1076C228.896 24.5234 228.172 24.8562 227.377 25.106C226.602 25.3549 225.85 25.497 225.122 25.5323C222.899 25.6401 221.114 25.0831 219.768 23.8615C218.421 22.6206 217.693 20.8791 217.585 18.637C217.515 17.1997 217.731 15.9119 218.233 14.7735C218.754 13.6342 219.507 12.7332 220.493 12.0708C221.498 11.4074 222.652 11.0441 223.955 10.9809C225.833 10.8899 227.348 11.4215 228.499 12.5758C229.65 13.7302 230.275 15.3326 230.374 17.3831C230.411 18.1496 230.085 18.5496 229.395 18.583L220.513 19.0137C220.848 21.9747 222.348 23.3906 225.012 23.2615C225.721 23.2271 226.329 23.1016 226.838 22.8848C227.346 22.6681 227.88 22.3925 228.44 22.058C228.495 22.0169 228.645 21.9328 228.889 21.8058C229.15 21.6586 229.368 21.5809 229.54 21.5725ZM224.116 13.1053C223.005 13.1591 222.131 13.5569 221.494 14.2984C220.858 15.04 220.504 16.056 220.432 17.3464L227.848 16.9869C227.728 15.6866 227.344 14.7063 226.697 14.0462C226.069 13.3659 225.208 13.0523 224.116 13.1053Z" fill="#1EDEC7"/>
<path d="M252.185 10.5631C252.368 9.97799 252.747 9.67149 253.322 9.64362C253.686 9.62597 254.017 9.73473 254.317 9.96992C254.617 10.2051 254.775 10.5048 254.793 10.8689C254.802 11.0605 254.772 11.2348 254.703 11.3918L250.496 23.2649C250.396 23.5771 250.215 23.8259 249.956 24.0114C249.695 24.1777 249.401 24.2688 249.076 24.2846C248.769 24.2994 248.478 24.2367 248.202 24.0964C247.925 23.937 247.722 23.7067 247.592 23.4057L243.408 14.3597L240.205 23.7638C240.105 24.076 239.925 24.3248 239.665 24.5103C239.423 24.6757 239.139 24.7663 238.814 24.7821C238.507 24.797 238.206 24.7347 237.911 24.5953C237.635 24.4359 237.422 24.2061 237.273 23.906L231.966 12.4942C231.881 12.3446 231.835 12.1836 231.827 12.0111C231.808 11.6278 231.946 11.3042 232.241 11.0402C232.555 10.7753 232.903 10.6336 233.286 10.615C233.861 10.5871 234.267 10.8459 234.505 11.3914L238.689 21.0137L242.012 11.1139C242.112 10.8018 242.283 10.563 242.525 10.3976C242.766 10.2322 243.031 10.1425 243.318 10.1286C243.587 10.1156 243.849 10.1797 244.106 10.3209C244.362 10.4622 244.555 10.6833 244.685 10.9843L248.948 20.4587L252.185 10.5631Z" fill="#1EDEC7"/>
<path d="M31.5214 31.1297C31.7809 31.4536 31.9248 31.778 31.9533 32.103C31.9918 32.5425 31.842 32.9216 31.504 33.2401C31.1851 33.5569 30.7867 33.7362 30.3089 33.7781C30.0031 33.8049 29.701 33.7639 29.4026 33.6553C29.1216 33.5258 28.873 33.3261 28.6568 33.0561L24.3365 27.599C23.9007 27.0209 23.4521 26.6268 22.9908 26.4169C22.5485 26.2052 21.9834 26.1295 21.2953 26.1898L18.4858 26.4359L19.0483 32.8578C19.0985 33.4311 18.9762 33.9041 18.6814 34.2766C18.385 34.6299 17.9596 34.8309 17.4053 34.8794C16.8511 34.928 16.3877 34.8049 16.0152 34.5101C15.6602 34.1945 15.4575 33.7501 15.4073 33.1767L13.9383 16.4053C13.8897 15.851 14.005 15.4076 14.284 15.075C14.5821 14.7408 15.0083 14.5494 15.5626 14.5008L22.7298 13.873C25.0233 13.6721 26.8078 14.0358 28.0832 14.9641C29.376 15.8716 30.107 17.2906 30.2761 19.2209C30.4133 20.7882 30.0772 22.1176 29.2676 23.2093C28.4755 24.2802 27.2797 25.0301 25.6802 25.4591C26.2462 25.5443 26.7545 25.7405 27.2051 26.0477C27.6557 26.3549 28.1085 26.7967 28.5634 27.3732L31.5214 31.1297ZM23.0249 23.1783C24.4201 23.0561 25.42 22.7085 26.0247 22.1356C26.6276 21.5435 26.8814 20.7027 26.786 19.6133C26.6889 18.5048 26.2936 17.7305 25.6003 17.2905C24.9053 16.8314 23.8601 16.6629 22.4649 16.7851L17.6485 17.207L18.2085 23.6002L23.0249 23.1783Z" fill="#1EDEC7"/>
<path d="M45.9324 28.3363C46.2573 28.3078 46.5262 28.4094 46.7391 28.6412C46.9711 28.8712 47.1055 29.1965 47.1424 29.617C47.1943 30.2095 46.8842 30.7374 46.2122 31.2007C45.5942 31.6207 44.8843 31.9814 44.0825 32.2828C43.2791 32.565 42.5047 32.7387 41.7593 32.804C39.504 33.0016 37.6601 32.5083 36.2274 31.3241C34.7948 30.14 33.9798 28.4203 33.7822 26.165C33.6567 24.7315 33.832 23.4354 34.3083 22.2767C34.7846 21.1179 35.512 20.1875 36.4905 19.4855C37.4881 18.7818 38.6463 18.3722 39.9651 18.2567C41.2265 18.1462 42.3498 18.3271 43.3348 18.7993C44.3199 19.2716 45.1148 19.9916 45.7196 20.9593C46.3244 21.9271 46.687 23.0991 46.8076 24.4752C46.8795 25.297 46.5524 25.7397 45.8261 25.8034L37.3688 26.5441C37.599 27.8529 38.057 28.795 38.743 29.3705C39.4273 29.9268 40.3715 30.1523 41.5756 30.0468C42.1872 29.9932 42.7156 29.8699 43.1609 29.6768C43.6254 29.4821 44.1421 29.2249 44.7112 28.9055C45.2578 28.5494 45.6648 28.3597 45.9324 28.3363ZM40.2721 20.7721C39.2973 20.8574 38.5405 21.2319 38.0016 21.8954C37.4818 22.5572 37.2147 23.4665 37.2005 24.6233L43.6797 24.0558C43.5394 22.8933 43.1757 22.0392 42.5886 21.4936C41.9999 20.9289 41.2277 20.6884 40.2721 20.7721Z" fill="#1EDEC7"/>
<path d="M56.6457 31.5001C55.2505 31.6223 53.9917 31.4341 52.8695 30.9353C51.7664 30.4349 50.8805 29.6651 50.2117 28.6259C49.5429 27.5867 49.1449 26.3408 49.0176 24.8883C48.8904 23.4357 49.0745 22.1292 49.5699 20.9688C50.0827 19.7875 50.8571 18.8434 51.8929 18.1364C52.9288 17.4294 54.1538 17.0139 55.5682 16.89C56.3136 16.8247 57.0682 16.8646 57.832 17.0095C58.6149 17.1528 59.309 17.3809 59.9142 17.6938C60.5609 18.0416 60.9111 18.5213 60.9646 19.1329C61.0015 19.5534 60.9265 19.9066 60.7397 20.1926C60.5703 20.4578 60.3232 20.6046 59.9983 20.6331C59.788 20.6515 59.5641 20.623 59.3263 20.5475C59.0886 20.472 58.8492 20.3775 58.6081 20.2638C58.1659 20.0521 57.7478 19.8962 57.3538 19.7958C56.9582 19.6764 56.5119 19.6385 56.015 19.682C54.83 19.7858 53.9469 20.258 53.3657 21.0985C52.8019 21.9183 52.5837 23.0544 52.7109 24.507C52.8365 25.9404 53.2489 27.0213 53.9483 27.7497C54.6651 28.4573 55.616 28.7592 56.8009 28.6554C57.2788 28.6136 57.6934 28.5098 58.0448 28.3442C58.4137 28.1578 58.8166 27.9203 59.2535 27.6317C59.5251 27.4346 59.7627 27.2886 59.9663 27.1937C60.1681 27.0797 60.3742 27.0135 60.5844 26.9951C60.8902 26.9683 61.16 27.0795 61.3936 27.3287C61.6273 27.5778 61.7617 27.9031 61.7969 28.3045C61.8253 28.6294 61.774 28.9228 61.6429 29.1846C61.5292 29.4257 61.3182 29.656 61.0101 29.8756C60.451 30.3098 59.7898 30.6758 59.0262 30.9738C58.261 31.2527 57.4675 31.4281 56.6457 31.5001Z" fill="#1EDEC7"/>
<path d="M73.0164 16.4595C73.1392 16.1021 73.3181 15.836 73.5532 15.6614C73.8057 15.4659 74.0848 15.3548 74.3906 15.328C74.8302 15.2895 75.2354 15.4081 75.6062 15.6838C75.9945 15.9386 76.2079 16.2859 76.2464 16.7255C76.2648 16.9357 76.2267 17.1605 76.1321 17.3999L69.7419 34.4841C69.4739 35.1624 68.9958 35.5317 68.3078 35.592C67.8682 35.6305 67.4638 35.5214 67.0947 35.2649C66.7463 35.0258 66.5537 34.696 66.5169 34.2755C66.4985 34.0653 66.5349 33.8213 66.6262 33.5437L68.2166 29.2733L61.9123 18.6455C61.8 18.4627 61.733 18.2471 61.7112 17.9986C61.6727 17.559 61.8216 17.1704 62.158 16.8328C62.5134 16.4935 62.9301 16.303 63.4079 16.2611C63.7328 16.2327 64.0366 16.2927 64.3192 16.4413C64.6002 16.5708 64.8322 16.8008 65.0153 17.1314L69.8049 25.6386L73.0164 16.4595Z" fill="#1EDEC7"/>
<path d="M85.5107 28.9718C84.1154 29.094 82.8567 28.9057 81.7345 28.407C80.6314 27.9066 79.7455 27.1368 79.0767 26.0976C78.4079 25.0584 78.0098 23.8125 77.8826 22.3599C77.7554 20.9074 77.9395 19.6009 78.4348 18.4404C78.9477 17.2592 79.722 16.3151 80.7579 15.6081C81.7937 14.901 83.0188 14.4856 84.4332 14.3617C85.1786 14.2964 85.9332 14.3362 86.697 14.4812C87.4799 14.6245 88.1739 14.8526 88.7791 15.1655C89.4259 15.5133 89.776 15.993 89.8296 16.6046C89.8664 17.0251 89.7915 17.3783 89.6047 17.6643C89.4353 17.9295 89.1882 18.0763 88.8632 18.1048C88.653 18.1232 88.429 18.0947 88.1913 18.0192C87.9536 17.9437 87.7142 17.8491 87.4731 17.7354C87.0309 17.5238 86.6128 17.3678 86.2188 17.2675C85.8232 17.1481 85.3769 17.1102 84.8799 17.1537C83.6949 17.2575 82.8119 17.7297 82.2307 18.5702C81.6669 19.3899 81.4487 20.5261 81.5759 21.9787C81.7014 23.4121 82.1139 24.493 82.8132 25.2214C83.53 25.929 84.4809 26.2309 85.6659 26.1271C86.1437 26.0852 86.5584 25.9815 86.9098 25.8159C87.2786 25.6295 87.6815 25.392 88.1185 25.1034C88.3901 24.9062 88.6277 24.7603 88.8312 24.6654C89.0331 24.5514 89.2392 24.4852 89.4494 24.4668C89.7552 24.44 90.0249 24.5512 90.2586 24.8004C90.4923 25.0495 90.6267 25.3748 90.6619 25.7762C90.6903 26.1011 90.639 26.3945 90.5078 26.6563C90.3941 26.8974 90.1832 27.1277 89.875 27.3473C89.316 27.7814 88.6548 28.1475 87.8912 28.4455C87.126 28.7244 86.3325 28.8998 85.5107 28.9718Z" fill="#1EDEC7"/>
<path d="M95.0605 28.0775C94.5444 28.1227 94.1018 28.0171 93.7327 27.7605C93.381 27.4832 93.1809 27.0674 93.1323 26.5131L91.6332 9.39771C91.5846 8.84344 91.7102 8.40873 92.01 8.09358C92.329 7.77676 92.7464 7.59575 93.2625 7.55055C93.7785 7.50535 94.2211 7.61102 94.5902 7.86758C94.9594 8.12414 95.1682 8.52955 95.2168 9.08381L96.7159 26.1992C96.7645 26.7535 96.6301 27.1986 96.3129 27.5345C95.994 27.8513 95.5765 28.0323 95.0605 28.0775Z" fill="#1EDEC7"/>
<path d="M111.306 22.6102C111.63 22.5817 111.899 22.6833 112.112 22.9151C112.344 23.1451 112.479 23.4704 112.516 23.8909C112.567 24.4833 112.257 25.0112 111.585 25.4746C110.967 25.8946 110.257 26.2553 109.456 26.5567C108.652 26.8389 107.878 27.0126 107.132 27.0779C104.877 27.2755 103.033 26.7822 101.601 25.598C100.168 24.4139 99.3529 22.6941 99.1553 20.4389C99.0298 19.0054 99.2052 17.7093 99.6814 16.5505C100.158 15.3918 100.885 14.4614 101.864 13.7594C102.861 13.0557 104.019 12.6461 105.338 12.5306C106.6 12.4201 107.723 12.601 108.708 13.0732C109.693 13.5455 110.488 14.2655 111.093 15.2332C111.698 16.201 112.06 17.3729 112.181 18.7491C112.253 19.5709 111.926 20.0136 111.199 20.0772L102.742 20.818C102.972 22.1268 103.43 23.0689 104.116 23.6443C104.8 24.2007 105.745 24.4261 106.949 24.3207C107.56 24.2671 108.089 24.1438 108.534 23.9507C108.999 23.7559 109.515 23.4988 110.084 23.1794C110.631 22.8233 111.038 22.6336 111.306 22.6102ZM105.645 15.0459C104.67 15.1313 103.914 15.5058 103.375 16.1693C102.855 16.8311 102.588 17.7404 102.574 18.8972L109.053 18.3297C108.913 17.1672 108.549 16.3131 107.962 15.7675C107.373 15.2028 106.601 14.9622 105.645 15.0459Z" fill="#1EDEC7"/>
</svg>
