<?xml version="1.0" encoding="utf-8"?>
<!-- Generator: Adobe Illustrator 18.1.0, SVG Export Plug-In . SVG Version: 6.00 Build 0)  -->
<svg version="1.1" xmlns="http://www.w3.org/2000/svg" xmlns:xlink="http://www.w3.org/1999/xlink" x="0px" y="0px"
	 viewBox="0 0 226.8 226.8" enable-background="new 0 0 226.8 226.8" xml:space="preserve">
<g id="Calque_1">
</g>
<g id="OBJECTS">
	<path fill="#C1E4E2" d="M210.4,127.3c0,2.7-3.8,5.1-4,7.7c-0.2,2.6,3.1,5.7,2.7,8.3c-0.4,2.6-4.5,4.4-5.2,7
		c-0.6,2.6,2.1,6.1,1.2,8.6c-0.9,2.5-5.2,3.6-6.3,6c-1.1,2.4,1.1,6.4-0.2,8.7c-1.3,2.3-5.7,2.7-7.2,4.9c-1.4,2.2,0,6.5-1.6,8.5
		c-1.6,2.1-6.1,1.7-7.9,3.7c-1.8,1.9-1.1,6.4-3,8.2c-1.9,1.8-6.3,0.7-8.4,2.3c-2.1,1.6-2.1,6.1-4.3,7.6c-2.2,1.4-6.3-0.3-8.6,0.9
		c-2.3,1.3-3.1,5.7-5.5,6.7c-2.4,1.1-6.2-1.4-8.7-0.5c-2.5,0.9-4,5.1-6.5,5.7c-2.5,0.6-5.9-2.4-8.5-2c-2.6,0.4-4.7,4.4-7.4,4.6
		c-2.6,0.2-5.4-3.3-8-3.3c-2.7,0-5.4,3.5-8,3.3c-2.6-0.2-4.8-4.2-7.4-4.6c-2.6-0.4-5.9,2.6-8.5,2c-2.6-0.6-4-4.9-6.5-5.7
		c-2.5-0.9-6.3,1.6-8.7,0.5c-2.4-1.1-3.2-5.5-5.5-6.7c-2.3-1.3-6.4,0.5-8.6-0.9c-2.2-1.4-2.2-5.9-4.3-7.6c-2.1-1.6-6.4-0.5-8.4-2.3
		c-1.9-1.8-1.2-6.2-3-8.2c-1.8-1.9-6.3-1.6-7.9-3.7c-1.6-2.1-0.2-6.3-1.6-8.5c-1.4-2.2-5.9-2.6-7.2-4.9c-1.3-2.3,0.9-6.3-0.2-8.7
		c-1.1-2.4-5.4-3.5-6.3-6c-0.9-2.5,1.9-6,1.2-8.6c-0.6-2.5-4.7-4.4-5.2-7c-0.4-2.6,2.9-5.6,2.7-8.3c-0.2-2.6-4-5.1-4-7.7
		c0-2.7,3.8-5.1,4-7.7c0.2-2.6-3.1-5.7-2.7-8.3c0.4-2.6,4.5-4.4,5.2-7c0.6-2.6-2.1-6.1-1.2-8.6c0.9-2.5,5.2-3.6,6.3-6
		c1.1-2.4-1.1-6.4,0.2-8.7c1.3-2.3,5.7-2.7,7.2-4.9c1.4-2.2,0-6.5,1.6-8.5c1.6-2.1,6.1-1.7,7.9-3.7c1.8-1.9,1.1-6.4,3-8.2
		c1.9-1.8,6.3-0.7,8.4-2.3c2.1-1.6,2.1-6.1,4.3-7.6c2.2-1.4,6.3,0.3,8.6-0.9c2.3-1.3,3.1-5.7,5.5-6.7c2.4-1.1,6.2,1.4,8.7,0.5
		c2.5-0.9,4-5.1,6.5-5.7c2.5-0.6,5.9,2.4,8.5,2c2.6-0.4,4.7-4.4,7.4-4.6c2.6-0.2,5.4,3.3,8,3.3c2.7,0,5.4-3.5,8-3.3
		c2.6,0.2,4.8,4.2,7.4,4.6c2.6,0.4,5.9-2.6,8.5-2c2.6,0.6,4,4.9,6.5,5.7c2.5,0.9,6.3-1.6,8.7-0.5c2.4,1.1,3.2,5.5,5.5,6.7
		c2.3,1.3,6.4-0.5,8.6,0.9c2.2,1.4,2.2,5.9,4.3,7.6c2.1,1.6,6.4,0.5,8.4,2.3c1.9,1.8,1.2,6.2,3,8.2c1.8,1.9,6.3,1.6,7.9,3.7
		c1.6,2.1,0.2,6.3,1.6,8.5c1.4,2.2,5.9,2.6,7.2,4.9c1.3,2.3-0.9,6.3,0.2,8.7c1.1,2.4,5.4,3.5,6.3,6c0.9,2.5-1.9,6-1.2,8.6
		c0.6,2.5,4.7,4.4,5.2,7c0.4,2.6-2.9,5.6-2.7,8.3C206.6,122.2,210.4,124.7,210.4,127.3z"/>
	<circle fill="#FFFFFF" cx="112.9" cy="127.5" r="90.3"/>
	<path fill="#77ECBA" d="M112.9,38.7c-49,0-88.8,39.8-88.8,88.8c0,49,39.8,88.8,88.8,88.8c49,0,88.8-39.8,88.8-88.8
		C201.7,78.5,162,38.7,112.9,38.7z M112.9,208c-44.4,0-80.5-36-80.5-80.5c0-44.4,36-80.5,80.5-80.5s80.5,36,80.5,80.5
		C193.4,172,157.4,208,112.9,208z"/>
	<g>
		<g>
			<polygon fill="#FFE85F" points="114.6,3.9 117.5,9.7 124,10.6 119.3,15.2 120.4,21.6 114.6,18.5 108.9,21.6 110,15.2 105.3,10.6 
				111.8,9.7 			"/>
			<g>
				<g>
					<polygon fill="#FFE85F" points="91.4,8 94.7,12.1 100,11.7 97.1,16.1 99.1,21 94,19.6 90,23.1 89.7,17.8 85.2,15 90.1,13.1 
											"/>
					<polygon fill="#FFE85F" points="71.2,16.4 75.1,19.1 79.6,17.5 78.1,22 81.1,25.8 76.3,25.8 73.6,29.8 72.1,25.3 67.6,24 
						71.4,21.1 					"/>
				</g>
				<g>
					<polygon fill="#FFE85F" points="137.9,8 134.6,12.1 129.3,11.7 132.2,16.1 130.2,21 135.3,19.6 139.3,23.1 139.6,17.8 
						144.1,15 139.1,13.1 					"/>
					<polygon fill="#FFE85F" points="158.1,16.4 154.2,19.1 149.7,17.5 151.2,22 148.2,25.8 153,25.8 155.7,29.8 157.2,25.3 
						161.7,24 157.9,21.1 					"/>
				</g>
			</g>
		</g>
	</g>
	<g>
		<g>
			<polygon fill="#FCFF78" points="113.8,1.1 116.7,6.9 123.1,7.8 118.5,12.4 119.6,18.8 113.8,15.7 108.1,18.8 109.2,12.4 
				104.5,7.8 110.9,6.9 			"/>
			<g>
				<g>
					<polygon fill="#FCFF78" points="90.5,5.2 93.9,9.3 99.1,8.9 96.3,13.3 98.3,18.2 93.2,16.8 89.2,20.3 88.9,15 84.4,12.2 
						89.3,10.3 					"/>
					<polygon fill="#FCFF78" points="70.4,13.6 74.3,16.3 78.7,14.7 77.3,19.2 80.2,23 75.5,23 72.8,27 71.3,22.5 66.7,21.1 
						70.5,18.3 					"/>
				</g>
				<g>
					<polygon fill="#FCFF78" points="137.1,5.2 133.7,9.3 128.5,8.9 131.4,13.3 129.3,18.2 134.4,16.8 138.5,20.3 138.7,15 
						143.2,12.2 138.3,10.3 					"/>
					<polygon fill="#FCFF78" points="157.2,13.6 153.4,16.3 148.9,14.7 150.3,19.2 147.4,23 152.2,23 154.8,27 156.3,22.5 
						160.9,21.1 157.1,18.3 					"/>
				</g>
			</g>
		</g>
	</g>
</g>
</svg>
